<?xml version="1.0" encoding="UTF-8"?>
<svg width="3654px" height="552px" viewBox="0 0 3654 552" version="1.1" xmlns="http://www.w3.org/2000/svg" xmlns:xlink="http://www.w3.org/1999/xlink">
    <title>Mea Memoria Copy 5</title>
    <g id="Page-1" stroke="none" stroke-width="1" fill="none" fill-rule="evenodd">
        <g id="Mea-Memoria-Copy-5" transform="translate(0.793, 0.4584)" fill="#F5F5EF" fill-rule="nonzero">
            <path d="M543.75,79.5 C560.75,79.5 572,84.25 577.5,93.75 C583,103.25 585.75,113.25 585.75,123.75 C585.75,125.25 584.625,127.5 582.375,130.5 C580.125,133.5 577.375,136.5 574.125,139.5 C570.875,142.5 567.625,145.125 564.375,147.375 C561.125,149.625 558.5,150.75 556.5,150.75 L543.75,150.75 C540.25,150.75 537.25,151 534.75,151.5 C528.25,152.5 523.75,154.25 521.25,156.75 C513.75,156.75 508.125,158.375 504.375,161.625 C500.625,164.875 497.75,169 495.75,174 C493.75,179 492.625,184.5 492.375,190.5 C492.125,196.5 492,202 492,207 L492,257.25 L492,311.25 C492,316.75 492.75,321 494.25,324 C495.75,327 497,329.75 498,332.25 C500.5,335.25 501.875,338.25 502.125,341.25 C502.375,344.25 502.5,347.5 502.5,351 L500.25,375.75 C500.25,382.75 501.25,389.625 503.25,396.375 C505.25,403.125 506.25,408 506.25,411 L515.25,432 L515.25,453 C515.25,462 519.625,468.25 528.375,471.75 C537.125,475.25 546.625,478.125 556.875,480.375 C567.125,482.625 576.625,485.125 585.375,487.875 C594.125,490.625 598.5,495.75 598.5,503.25 C598.5,518.25 591.5,525.75 577.5,525.75 L550.5,525.75 C547,525.75 543.25,525.875 539.25,526.125 C535.25,526.375 531.25,527.75 527.25,530.25 L465,525.75 L444,525.75 L429.75,525.75 C428.25,525.75 424.75,526 419.25,526.5 C413.75,527 407.875,527.5 401.625,528 C395.375,528.5 389.5,529 384,529.5 C378.5,530 375,530.25 373.5,530.25 C366,530.25 360.625,529.75 357.375,528.75 C354.125,527.75 352.5,524 352.5,517.5 C352.5,510.5 354.375,502.875 358.125,494.625 C361.875,486.375 369,482.25 379.5,482.25 L393.75,482.25 L423,482.25 C426.5,482.25 429.375,481.125 431.625,478.875 C433.875,476.625 435.375,473.875 436.125,470.625 C436.875,467.375 437.375,464.125 437.625,460.875 C437.875,457.625 438,455 438,453 C438,446.5 436.625,438.75 433.875,429.75 C431.125,420.75 429.75,414.5 429.75,411 L429.75,384 L429.75,361.5 L429.75,340.5 C429.75,338.5 429.375,335.125 428.625,330.375 C427.875,325.625 426.75,320.875 425.25,316.125 C423.75,311.375 422.125,307.25 420.375,303.75 C418.625,300.25 416.75,298.5 414.75,298.5 C413.75,298.5 411.625,300.625 408.375,304.875 C405.125,309.125 401.375,314.625 397.125,321.375 C392.875,328.125 388.125,335.625 382.875,343.875 C377.625,352.125 372.625,360.25 367.875,368.25 C363.125,376.25 358.75,383.5 354.75,390 C350.75,396.5 347.75,401.5 345.75,405 C341.75,408 338.375,412 335.625,417 C332.875,422 330.5,427.125 328.5,432.375 C326.5,437.625 324.75,442.875 323.25,448.125 C321.75,453.375 320.25,457.75 318.75,461.25 C314.75,468.25 310.875,474.375 307.125,479.625 C303.375,484.875 300.25,489.25 297.75,492.75 C293.75,501.25 291,506.125 289.5,507.375 C288,508.625 285.25,509.25 281.25,509.25 C275.25,509.25 271.375,507.25 269.625,503.25 C267.875,499.25 264.75,493.5 260.25,486 L254.25,440.25 C250.75,431.25 246.75,422 242.25,412.5 C237.75,403 233.625,393.375 229.875,383.625 C226.125,373.875 223,364.25 220.5,354.75 C218,345.25 216.75,336.25 216.75,327.75 L216.75,319.5 C216.75,317.5 216,314.125 214.5,309.375 C213,304.625 211.25,299.875 209.25,295.125 C207.25,290.375 205,286.25 202.5,282.75 C200,279.25 197.75,277.5 195.75,277.5 C194.25,277.5 192.25,279.75 189.75,284.25 C187.25,288.75 184.875,294 182.625,300 C180.375,306 178.5,312.125 177,318.375 C175.5,324.625 174.75,329.25 174.75,332.25 L174.75,369.75 L174.75,384 C172.75,397 170.75,408.75 168.75,419.25 C167.25,428.25 165.875,437 164.625,445.5 C163.375,454 162.75,459.25 162.75,461.25 C162.75,475.25 165.25,484.75 170.25,489.75 C175.25,494.75 180.75,498 186.75,499.5 C192.75,501 198.25,502.5 203.25,504 C208.25,505.5 210.75,510 210.75,517.5 C210.75,523 209.625,527.125 207.375,529.875 C205.125,532.625 202.5,534.625 199.5,535.875 C196.5,537.125 193.5,537.875 190.5,538.125 C187.5,538.375 185.25,538.5 183.75,538.5 L154.5,538.5 L83.25,525.75 L69,525.75 L56.25,525.75 C54.75,526.75 53,527.5 51,528 C48,529.5 44.75,530.25 41.25,530.25 L27,530.25 C25.5,530.25 23.25,530 20.25,529.5 C17.25,529 14.25,528.125 11.25,526.875 C8.25,525.625 5.625,524.25 3.375,522.75 C1.125,521.25 0,519.5 0,517.5 C0,512.5 1.875,508.125 5.625,504.375 C9.375,500.625 13.625,497.5 18.375,495 C23.125,492.5 27.75,490.75 32.25,489.75 C36.75,488.75 39.75,488.25 41.25,488.25 L56.25,488.25 C57.75,488.25 60.75,488 65.25,487.5 C69.75,487 74.5,486.25 79.5,485.25 C85,484.25 91.25,483.25 98.25,482.25 C101.75,478.75 105.25,472.625 108.75,463.875 C112.25,455.125 115.25,446.125 117.75,436.875 C120.25,427.625 122.375,419.125 124.125,411.375 C125.875,403.625 126.75,398.75 126.75,396.75 L126.75,369.75 L126.75,361.5 C128.25,360 129.5,357.625 130.5,354.375 C131.5,351.125 132.25,347.75 132.75,344.25 C133.25,340.25 133.5,336.25 133.5,332.25 L133.5,298.5 C133.5,296.5 133.875,293.5 134.625,289.5 C135.375,285.5 136.25,281.5 137.25,277.5 C138.75,273 140.25,268.25 141.75,263.25 L141.75,242.25 C142.75,239.25 143.75,236.25 144.75,233.25 C145.75,230.75 146.5,228 147,225 C147.5,222 147.75,218.75 147.75,215.25 L147.75,198.75 C147.75,197.25 147,193.875 145.5,188.625 C144,183.375 142.25,178 140.25,172.5 C138.25,166 136,158.75 133.5,150.75 C131,147.25 127.5,144 123,141 C118.5,138 114.25,135 110.25,132 C107.25,129.5 103.625,127.125 99.375,124.875 C95.125,122.625 91.75,119.25 89.25,114.75 L89.25,106.5 C89.25,103.5 90.5,101.25 93,99.75 C95.5,98.25 98.5,97 102,96 C105.5,95 109.75,94.5 114.75,94.5 L133.5,94.5 C138.5,94.5 142.125,94.125 144.375,93.375 C146.625,92.625 148.25,91.625 149.25,90.375 C150.25,89.125 151,88.125 151.5,87.375 C152,86.625 153,86.25 154.5,86.25 L189.75,86.25 L204,86.25 L225,94.5 C230,107.5 235.375,123.375 241.125,142.125 C246.875,160.875 252.75,180.75 258.75,201.75 C264.75,222.75 270.625,243.625 276.375,264.375 C282.125,285.125 287.625,303.75 292.875,320.25 C298.125,336.75 302.75,350.125 306.75,360.375 C310.75,370.625 314,375.75 316.5,375.75 C317.5,373.25 318.75,371 320.25,369 C321.25,367 322.625,364.875 324.375,362.625 C326.125,360.375 327.75,358.5 329.25,357 C336.75,331.5 346.875,305 359.625,277.5 C372.375,250 383.75,223.75 393.75,198.75 C393.75,188.25 396.875,179.125 403.125,171.375 C409.375,163.625 416,154.5 423,144 C424.5,140.5 425.5,135.875 426,130.125 C426.5,124.375 427.375,118.625 428.625,112.875 C429.875,107.125 432,101.75 435,96.75 C438,91.75 443,88.25 450,86.25 L479.25,86.25 L489.75,92.25 C496.75,92.25 503.25,91.625 509.25,90.375 C515.25,89.125 521,87.75 526.5,86.25 C532,84.25 537.75,82 543.75,79.5 Z" id="Path"></path>
            <path d="M783,161.25 C793.5,161.25 802.375,163.125 809.625,166.875 C816.875,170.625 822.75,175.75 827.25,182.25 C831.75,188.75 835,196.25 837,204.75 C839,213.25 839.75,222.25 839.25,231.75 C839.25,245.25 834.25,256.125 824.25,264.375 C814.25,272.625 804,279.75 793.5,285.75 C784,292.25 773.875,298 763.125,303 C752.375,308 742.375,313.5 733.125,319.5 C723.875,325.5 716.125,332.5 709.875,340.5 C703.625,348.5 700.25,358.75 699.75,371.25 L699.75,402.75 C698.75,411.25 700.5,419.625 705,427.875 C709.5,436.125 715.25,440.25 722.25,440.25 C722.75,440.75 724.75,440 728.25,438 C731.75,436 735.625,433.625 739.875,430.875 C744.125,428.125 748.375,425.25 752.625,422.25 C756.875,419.25 760,417 762,415.5 C769.5,412 775.375,409.125 779.625,406.875 C783.875,404.625 787,404 789,405 C792.5,405 795.5,405.5 798,406.5 C800.5,407.5 801.75,411.25 801.75,417.75 C800.75,428.75 796,439.375 787.5,449.625 C779,459.875 769.75,469.375 759.75,478.125 C749.75,486.875 740,494.5 730.5,501 C721,507.5 714.75,512.25 711.75,515.25 C703.25,522.75 695.375,526.75 688.125,527.25 C680.875,527.75 673.5,528 666,528 C661.5,527.5 656.875,525.5 652.125,522 C647.375,518.5 643.125,514.375 639.375,509.625 C635.625,504.875 632.75,500 630.75,495 C628.75,490 628,485.75 628.5,482.25 L628.5,469.5 C628.5,466 627.5,462.25 625.5,458.25 C624.5,456.25 623.5,454.5 622.5,453 L624.75,438 L624.75,426 C624.75,424 625.25,418.625 626.25,409.875 C627.25,401.125 628.5,391.625 630,381.375 C631.5,371.125 632.875,361.375 634.125,352.125 C635.375,342.875 636.25,336.75 636.75,333.75 C638.75,332.25 639.75,330.75 639.75,329.25 C639.75,327.75 639.5,326.25 639,324.75 C638.5,323.25 638.25,321.375 638.25,319.125 C638.25,316.875 639.25,314.25 641.25,311.25 C641.25,305.25 642.5,299 645,292.5 C646.5,289 648,285.5 649.5,282 L660,257.25 C661,246.25 666.25,234.875 675.75,223.125 C685.25,211.375 696.375,200.75 709.125,191.25 C721.875,181.75 735,174.125 748.5,168.375 C762,162.625 773.5,160.25 783,161.25 Z M749.25,217.5 C746.75,217.5 744.25,219.375 741.75,223.125 C739.25,226.875 736.75,231 734.25,235.5 C731.75,241 729.25,246.75 726.75,252.75 C726.25,255.25 725.5,258.125 724.5,261.375 C723.5,264.625 722.75,267.625 722.25,270.375 C721.75,273.125 722,275.375 723,277.125 C724,278.875 726,279.75 729,279.75 C731.5,280.25 735.25,279.75 740.25,278.25 C745.25,276.75 750.375,274.5 755.625,271.5 C760.875,268.5 765.625,264.875 769.875,260.625 C774.125,256.375 776.5,251.75 777,246.75 L777,234 C777,231.5 776.25,229.25 774.75,227.25 C773.25,225.25 771.5,223.75 769.5,222.75 C767.5,221.25 765,220 762,219 L749.25,217.5 Z" id="Shape"></path>
            <path d="M1066.5,154.5 C1077,154.5 1084.5,157.5 1089,163.5 C1093.5,169.5 1095.75,177.75 1095.75,188.25 C1095.75,190.25 1095,194.625 1093.5,201.375 C1092,208.125 1090.125,215.625 1087.875,223.875 C1085.625,232.125 1083.25,240.5 1080.75,249 C1078.25,257.5 1076.25,264.25 1074.75,269.25 C1074.75,273.25 1074.5,277.375 1074,281.625 C1073.5,285.875 1071.75,291.5 1068.75,298.5 C1064.75,301.5 1062.75,306.375 1062.75,313.125 C1062.75,319.875 1062.75,324.75 1062.75,327.75 L1060.5,367.5 L1060.5,396.75 C1060.5,398.25 1060.625,400.875 1060.875,404.625 C1061.125,408.375 1061.625,412.125 1062.375,415.875 C1063.125,419.625 1064.5,422.875 1066.5,425.625 C1068.5,428.375 1071.25,429.75 1074.75,429.75 L1085.25,413.25 C1088.25,410.75 1091.75,407.625 1095.75,403.875 C1099.75,400.125 1103.75,396.5 1107.75,393 C1112.25,389 1116.75,384.75 1121.25,380.25 C1124.25,380.25 1126.75,381.5 1128.75,384 C1130.75,386.5 1131.75,389.25 1131.75,392.25 L1128.75,398.25 C1126.75,402.25 1124.75,405.25 1122.75,407.25 C1119.25,417.25 1114.75,425.875 1109.25,433.125 C1103.75,440.375 1097.75,447.375 1091.25,454.125 C1084.75,460.875 1078.125,467.75 1071.375,474.75 C1064.625,481.75 1058.25,489.75 1052.25,498.75 L1035.75,522 C1035.75,526.5 1034.375,531.125 1031.625,535.875 C1028.875,540.625 1025.625,544.375 1021.875,547.125 C1018.125,549.875 1014.125,551.125 1009.875,550.875 C1005.625,550.625 1002.25,547.75 999.75,542.25 C996.75,533.25 995.25,524.375 995.25,515.625 C995.25,506.875 996,498.375 997.5,490.125 C999,481.875 1000.5,474 1002,466.5 C1003.5,459 1004.25,451.75 1004.25,444.75 L1004.25,417.75 L1004.25,402.75 C1004.25,400.25 1002.5,398.5 999,397.5 C997,397 995.25,396.75 993.75,396.75 C992.25,396.75 988.5,401.125 982.5,409.875 C976.5,418.625 969.625,428.625 961.875,439.875 C954.125,451.125 946.25,462.5 938.25,474 C930.25,485.5 923.75,493.75 918.75,498.75 C917.25,500.75 914.875,503.625 911.625,507.375 C908.375,511.125 904.875,514.75 901.125,518.25 C897.375,521.75 893.25,524.875 888.75,527.625 C884.25,530.375 880.25,531.75 876.75,531.75 C869.75,531.75 864,529.25 859.5,524.25 C855,519.25 851.5,513.375 849,506.625 C846.5,499.875 844.625,493.125 843.375,486.375 C842.125,479.625 841.5,474.75 841.5,471.75 L839.25,417.75 L849.75,330 C849.75,328.5 850.5,325 852,319.5 C853.5,314 855.5,308 858,301.5 C860.5,295 863.375,288.625 866.625,282.375 C869.875,276.125 873.25,271 876.75,267 C891.25,253.5 905.25,237 918.75,217.5 C925.25,208.5 931.5,202 937.5,198 C943.5,194 949.5,190.875 955.5,188.625 C961.5,186.375 967.5,184.625 973.5,183.375 C979.5,182.125 986.25,179.5 993.75,175.5 C996.75,175.5 1000.625,173.875 1005.375,170.625 C1010.125,167.375 1014.5,164.25 1018.5,161.25 L1039.5,161.25 L1052.25,161.25 L1066.5,154.5 Z M970.5,237.75 C961.5,245.25 953,253.875 945,263.625 C937,273.375 930,283.25 924,293.25 C918,303.25 913.25,312.625 909.75,321.375 C906.25,330.125 904.5,337 904.5,342 C904.5,344.5 904.25,349.125 903.75,355.875 C903.25,362.625 903.5,369.625 904.5,376.875 C905.5,384.125 907.375,390.625 910.125,396.375 C912.875,402.125 917.75,405 924.75,405 C931.25,405 938.875,399.25 947.625,387.75 C956.375,376.25 964.625,363.25 972.375,348.75 C980.125,334.25 986.625,320.75 991.875,308.25 C997.125,295.75 999.75,288.25 999.75,285.75 C999.75,283.75 1000,278.875 1000.5,271.125 C1001,263.375 1000.625,255.875 999.375,248.625 C998.125,241.375 995.375,236.125 991.125,232.875 C986.875,229.625 980,231.25 970.5,237.75 Z" id="Shape"></path>
            <path d="M1858.5,79.5 C1875.5,79.5 1886.75,84.25 1892.25,93.75 C1897.75,103.25 1900.5,113.25 1900.5,123.75 C1900.5,125.25 1899.375,127.5 1897.125,130.5 C1894.875,133.5 1892.125,136.5 1888.875,139.5 C1885.625,142.5 1882.375,145.125 1879.125,147.375 C1875.875,149.625 1873.25,150.75 1871.25,150.75 L1858.5,150.75 C1855,150.75 1852,151 1849.5,151.5 C1843,152.5 1838.5,154.25 1836,156.75 C1828.5,156.75 1822.875,158.375 1819.125,161.625 C1815.375,164.875 1812.5,169 1810.5,174 C1808.5,179 1807.375,184.5 1807.125,190.5 C1806.875,196.5 1806.75,202 1806.75,207 L1806.75,257.25 L1806.75,311.25 C1806.75,316.75 1807.5,321 1809,324 C1810.5,327 1811.75,329.75 1812.75,332.25 C1815.25,335.25 1816.625,338.25 1816.875,341.25 C1817.125,344.25 1817.25,347.5 1817.25,351 L1815,375.75 C1815,382.75 1816,389.625 1818,396.375 C1820,403.125 1821,408 1821,411 L1830,432 L1830,453 C1830,462 1834.375,468.25 1843.125,471.75 C1851.875,475.25 1861.375,478.125 1871.625,480.375 C1881.875,482.625 1891.375,485.125 1900.125,487.875 C1908.875,490.625 1913.25,495.75 1913.25,503.25 C1913.25,518.25 1906.25,525.75 1892.25,525.75 L1865.25,525.75 C1861.75,525.75 1858,525.875 1854,526.125 C1850,526.375 1846,527.75 1842,530.25 L1779.75,525.75 L1758.75,525.75 L1744.5,525.75 C1743,525.75 1739.5,526 1734,526.5 C1728.5,527 1722.625,527.5 1716.375,528 C1710.125,528.5 1704.25,529 1698.75,529.5 C1693.25,530 1689.75,530.25 1688.25,530.25 C1680.75,530.25 1675.375,529.75 1672.125,528.75 C1668.875,527.75 1667.25,524 1667.25,517.5 C1667.25,510.5 1669.125,502.875 1672.875,494.625 C1676.625,486.375 1683.75,482.25 1694.25,482.25 L1708.5,482.25 L1737.75,482.25 C1741.25,482.25 1744.125,481.125 1746.375,478.875 C1748.625,476.625 1750.125,473.875 1750.875,470.625 C1751.625,467.375 1752.125,464.125 1752.375,460.875 C1752.625,457.625 1752.75,455 1752.75,453 C1752.75,446.5 1751.375,438.75 1748.625,429.75 C1745.875,420.75 1744.5,414.5 1744.5,411 L1744.5,384 L1744.5,361.5 L1744.5,340.5 C1744.5,338.5 1744.125,335.125 1743.375,330.375 C1742.625,325.625 1741.5,320.875 1740,316.125 C1738.5,311.375 1736.875,307.25 1735.125,303.75 C1733.375,300.25 1731.5,298.5 1729.5,298.5 C1728.5,298.5 1726.375,300.625 1723.125,304.875 C1719.875,309.125 1716.125,314.625 1711.875,321.375 C1707.625,328.125 1702.875,335.625 1697.625,343.875 C1692.375,352.125 1687.375,360.25 1682.625,368.25 C1677.875,376.25 1673.5,383.5 1669.5,390 C1665.5,396.5 1662.5,401.5 1660.5,405 C1656.5,408 1653.125,412 1650.375,417 C1647.625,422 1645.25,427.125 1643.25,432.375 C1641.25,437.625 1639.5,442.875 1638,448.125 C1636.5,453.375 1635,457.75 1633.5,461.25 C1629.5,468.25 1625.625,474.375 1621.875,479.625 C1618.125,484.875 1615,489.25 1612.5,492.75 C1608.5,501.25 1605.75,506.125 1604.25,507.375 C1602.75,508.625 1600,509.25 1596,509.25 C1590,509.25 1586.125,507.25 1584.375,503.25 C1582.625,499.25 1579.5,493.5 1575,486 L1569,440.25 C1565.5,431.25 1561.5,422 1557,412.5 C1552.5,403 1548.375,393.375 1544.625,383.625 C1540.875,373.875 1537.75,364.25 1535.25,354.75 C1532.75,345.25 1531.5,336.25 1531.5,327.75 L1531.5,319.5 C1531.5,317.5 1530.75,314.125 1529.25,309.375 C1527.75,304.625 1526,299.875 1524,295.125 C1522,290.375 1519.75,286.25 1517.25,282.75 C1514.75,279.25 1512.5,277.5 1510.5,277.5 C1509,277.5 1507,279.75 1504.5,284.25 C1502,288.75 1499.625,294 1497.375,300 C1495.125,306 1493.25,312.125 1491.75,318.375 C1490.25,324.625 1489.5,329.25 1489.5,332.25 L1489.5,369.75 L1489.5,384 C1487.5,397 1485.5,408.75 1483.5,419.25 C1482,428.25 1480.625,437 1479.375,445.5 C1478.125,454 1477.5,459.25 1477.5,461.25 C1477.5,475.25 1480,484.75 1485,489.75 C1490,494.75 1495.5,498 1501.5,499.5 C1507.5,501 1513,502.5 1518,504 C1523,505.5 1525.5,510 1525.5,517.5 C1525.5,523 1524.375,527.125 1522.125,529.875 C1519.875,532.625 1517.25,534.625 1514.25,535.875 C1511.25,537.125 1508.25,537.875 1505.25,538.125 C1502.25,538.375 1500,538.5 1498.5,538.5 L1469.25,538.5 L1398,525.75 L1383.75,525.75 L1371,525.75 C1369.5,526.75 1367.75,527.5 1365.75,528 C1362.75,529.5 1359.5,530.25 1356,530.25 L1341.75,530.25 C1340.25,530.25 1338,530 1335,529.5 C1332,529 1329,528.125 1326,526.875 C1323,525.625 1320.375,524.25 1318.125,522.75 C1315.875,521.25 1314.75,519.5 1314.75,517.5 C1314.75,512.5 1316.625,508.125 1320.375,504.375 C1324.125,500.625 1328.375,497.5 1333.125,495 C1337.875,492.5 1342.5,490.75 1347,489.75 C1351.5,488.75 1354.5,488.25 1356,488.25 L1371,488.25 C1372.5,488.25 1375.5,488 1380,487.5 C1384.5,487 1389.25,486.25 1394.25,485.25 C1399.75,484.25 1406,483.25 1413,482.25 C1416.5,478.75 1420,472.625 1423.5,463.875 C1427,455.125 1430,446.125 1432.5,436.875 C1435,427.625 1437.125,419.125 1438.875,411.375 C1440.625,403.625 1441.5,398.75 1441.5,396.75 L1441.5,369.75 L1441.5,361.5 C1443,360 1444.25,357.625 1445.25,354.375 C1446.25,351.125 1447,347.75 1447.5,344.25 C1448,340.25 1448.25,336.25 1448.25,332.25 L1448.25,298.5 C1448.25,296.5 1448.625,293.5 1449.375,289.5 C1450.125,285.5 1451,281.5 1452,277.5 C1453.5,273 1455,268.25 1456.5,263.25 L1456.5,242.25 C1457.5,239.25 1458.5,236.25 1459.5,233.25 C1460.5,230.75 1461.25,228 1461.75,225 C1462.25,222 1462.5,218.75 1462.5,215.25 L1462.5,198.75 C1462.5,197.25 1461.75,193.875 1460.25,188.625 C1458.75,183.375 1457,178 1455,172.5 C1453,166 1450.75,158.75 1448.25,150.75 C1445.75,147.25 1442.25,144 1437.75,141 C1433.25,138 1429,135 1425,132 C1422,129.5 1418.375,127.125 1414.125,124.875 C1409.875,122.625 1406.5,119.25 1404,114.75 L1404,106.5 C1404,103.5 1405.25,101.25 1407.75,99.75 C1410.25,98.25 1413.25,97 1416.75,96 C1420.25,95 1424.5,94.5 1429.5,94.5 L1448.25,94.5 C1453.25,94.5 1456.875,94.125 1459.125,93.375 C1461.375,92.625 1463,91.625 1464,90.375 C1465,89.125 1465.75,88.125 1466.25,87.375 C1466.75,86.625 1467.75,86.25 1469.25,86.25 L1504.5,86.25 L1518.75,86.25 L1539.75,94.5 C1544.75,107.5 1550.125,123.375 1555.875,142.125 C1561.625,160.875 1567.5,180.75 1573.5,201.75 C1579.5,222.75 1585.375,243.625 1591.125,264.375 C1596.875,285.125 1602.375,303.75 1607.625,320.25 C1612.875,336.75 1617.5,350.125 1621.5,360.375 C1625.5,370.625 1628.75,375.75 1631.25,375.75 C1632.25,373.25 1633.5,371 1635,369 C1636,367 1637.375,364.875 1639.125,362.625 C1640.875,360.375 1642.5,358.5 1644,357 C1651.5,331.5 1661.625,305 1674.375,277.5 C1687.125,250 1698.5,223.75 1708.5,198.75 C1708.5,188.25 1711.625,179.125 1717.875,171.375 C1724.125,163.625 1730.75,154.5 1737.75,144 C1739.25,140.5 1740.25,135.875 1740.75,130.125 C1741.25,124.375 1742.125,118.625 1743.375,112.875 C1744.625,107.125 1746.75,101.75 1749.75,96.75 C1752.75,91.75 1757.75,88.25 1764.75,86.25 L1794,86.25 L1804.5,92.25 C1811.5,92.25 1818,91.625 1824,90.375 C1830,89.125 1835.75,87.75 1841.25,86.25 C1846.75,84.25 1852.5,82 1858.5,79.5 Z" id="Path"></path>
            <path d="M2097.75,161.25 C2108.25,161.25 2117.125,163.125 2124.375,166.875 C2131.625,170.625 2137.5,175.75 2142,182.25 C2146.5,188.75 2149.75,196.25 2151.75,204.75 C2153.75,213.25 2154.5,222.25 2154,231.75 C2154,245.25 2149,256.125 2139,264.375 C2129,272.625 2118.75,279.75 2108.25,285.75 C2098.75,292.25 2088.625,298 2077.875,303 C2067.125,308 2057.125,313.5 2047.875,319.5 C2038.625,325.5 2030.875,332.5 2024.625,340.5 C2018.375,348.5 2015,358.75 2014.5,371.25 L2014.5,402.75 C2013.5,411.25 2015.25,419.625 2019.75,427.875 C2024.25,436.125 2030,440.25 2037,440.25 C2037.5,440.75 2039.5,440 2043,438 C2046.5,436 2050.375,433.625 2054.625,430.875 C2058.875,428.125 2063.125,425.25 2067.375,422.25 C2071.625,419.25 2074.75,417 2076.75,415.5 C2084.25,412 2090.125,409.125 2094.375,406.875 C2098.625,404.625 2101.75,404 2103.75,405 C2107.25,405 2110.25,405.5 2112.75,406.5 C2115.25,407.5 2116.5,411.25 2116.5,417.75 C2115.5,428.75 2110.75,439.375 2102.25,449.625 C2093.75,459.875 2084.5,469.375 2074.5,478.125 C2064.5,486.875 2054.75,494.5 2045.25,501 C2035.75,507.5 2029.5,512.25 2026.5,515.25 C2018,522.75 2010.125,526.75 2002.875,527.25 C1995.625,527.75 1988.25,528 1980.75,528 C1976.25,527.5 1971.625,525.5 1966.875,522 C1962.125,518.5 1957.875,514.375 1954.125,509.625 C1950.375,504.875 1947.5,500 1945.5,495 C1943.5,490 1942.75,485.75 1943.25,482.25 L1943.25,469.5 C1943.25,466 1942.25,462.25 1940.25,458.25 C1939.25,456.25 1938.25,454.5 1937.25,453 L1939.5,438 L1939.5,426 C1939.5,424 1940,418.625 1941,409.875 C1942,401.125 1943.25,391.625 1944.75,381.375 C1946.25,371.125 1947.625,361.375 1948.875,352.125 C1950.125,342.875 1951,336.75 1951.5,333.75 C1953.5,332.25 1954.5,330.75 1954.5,329.25 C1954.5,327.75 1954.25,326.25 1953.75,324.75 C1953.25,323.25 1953,321.375 1953,319.125 C1953,316.875 1954,314.25 1956,311.25 C1956,305.25 1957.25,299 1959.75,292.5 C1961.25,289 1962.75,285.5 1964.25,282 L1974.75,257.25 C1975.75,246.25 1981,234.875 1990.5,223.125 C2000,211.375 2011.125,200.75 2023.875,191.25 C2036.625,181.75 2049.75,174.125 2063.25,168.375 C2076.75,162.625 2088.25,160.25 2097.75,161.25 Z M2064,217.5 C2061.5,217.5 2059,219.375 2056.5,223.125 C2054,226.875 2051.5,231 2049,235.5 C2046.5,241 2044,246.75 2041.5,252.75 C2041,255.25 2040.25,258.125 2039.25,261.375 C2038.25,264.625 2037.5,267.625 2037,270.375 C2036.5,273.125 2036.75,275.375 2037.75,277.125 C2038.75,278.875 2040.75,279.75 2043.75,279.75 C2046.25,280.25 2050,279.75 2055,278.25 C2060,276.75 2065.125,274.5 2070.375,271.5 C2075.625,268.5 2080.375,264.875 2084.625,260.625 C2088.875,256.375 2091.25,251.75 2091.75,246.75 L2091.75,234 C2091.75,231.5 2091,229.25 2089.5,227.25 C2088,225.25 2086.25,223.75 2084.25,222.75 C2082.25,221.25 2079.75,220 2076.75,219 L2064,217.5 Z" id="Shape"></path>
            <path d="M2279.25,169.5 C2286.75,169.5 2291.375,172.125 2293.125,177.375 C2294.875,182.625 2295.375,188.875 2294.625,196.125 C2293.875,203.375 2292.75,210.75 2291.25,218.25 C2289.75,225.75 2289.25,231.75 2289.75,236.25 L2289.75,257.25 C2289.75,258.75 2290,261.375 2290.5,265.125 C2291,268.875 2292.25,272.125 2294.25,274.875 C2296.25,277.625 2299.125,279.25 2302.875,279.75 C2306.625,280.25 2312,278.25 2319,273.75 C2321.5,271.75 2325.25,267.625 2330.25,261.375 C2335.25,255.125 2340.625,248.125 2346.375,240.375 C2352.125,232.625 2358.125,224.375 2364.375,215.625 C2370.625,206.875 2376.5,199 2382,192 C2387.5,185 2392.5,179.125 2397,174.375 C2401.5,169.625 2404.75,167.25 2406.75,167.25 C2414.25,167.25 2420.875,169.125 2426.625,172.875 C2432.375,176.625 2437.375,181.25 2441.625,186.75 C2445.875,192.25 2449.125,197.875 2451.375,203.625 C2453.625,209.375 2454.75,214 2454.75,217.5 L2450.25,236.25 C2450.25,237.75 2450,240.5 2449.5,244.5 C2449,248.5 2449.125,252.125 2449.875,255.375 C2450.625,258.625 2452,260.75 2454,261.75 C2456,262.75 2459.75,261.25 2465.25,257.25 C2468.25,254.75 2473.5,249 2481,240 C2488.5,231 2496.75,221.75 2505.75,212.25 C2514.75,202.75 2524,194.25 2533.5,186.75 C2543,179.25 2551.5,175.5 2559,175.5 C2569,175.5 2576.375,178.625 2581.125,184.875 C2585.875,191.125 2588.25,197.75 2588.25,204.75 C2588.25,206.25 2587.75,209.125 2586.75,213.375 C2585.75,217.625 2584.5,222.125 2583,226.875 C2581.5,231.625 2580.25,236.25 2579.25,240.75 C2578.25,245.25 2577.75,248.5 2577.75,250.5 L2577.75,265.5 C2577.75,273 2575.5,283.625 2571,297.375 C2566.5,311.125 2561.625,325.75 2556.375,341.25 C2551.125,356.75 2546.375,371.75 2542.125,386.25 C2537.875,400.75 2535.75,412.5 2535.75,421.5 C2535.75,424 2535.5,427.125 2535,430.875 C2534.5,434.625 2534.5,437.875 2535,440.625 C2535.5,443.375 2537,445 2539.5,445.5 C2542,446 2546.25,444.25 2552.25,440.25 C2554.75,438.75 2558.75,436 2564.25,432 C2569.75,428 2575.25,424.625 2580.75,421.875 C2586.25,419.125 2591,417.875 2595,418.125 C2599,418.375 2600.75,422.25 2600.25,429.75 C2591.25,440.75 2582.75,450.75 2574.75,459.75 C2567.75,467.75 2560.75,475.625 2553.75,483.375 C2546.75,491.125 2541.5,497 2538,501 C2530.5,506.5 2524.5,511.75 2520,516.75 C2515.5,521.75 2511.375,526.375 2507.625,530.625 C2503.875,534.875 2499.75,538.25 2495.25,540.75 C2490.75,543.25 2484.75,544.5 2477.25,544.5 C2471.75,544.5 2467.25,542.875 2463.75,539.625 C2460.25,536.375 2457.25,532.75 2454.75,528.75 C2452.25,524.75 2450.5,520.625 2449.5,516.375 C2448.5,512.125 2448,509 2448,507 C2448,493 2449.875,479.625 2453.625,466.875 C2457.375,454.125 2461.75,442 2466.75,430.5 C2471.75,419 2476.5,407.625 2481,396.375 C2485.5,385.125 2488.5,374 2490,363 C2490,361 2490.25,358.5 2490.75,355.5 C2491.25,352.5 2492,349.5 2493,346.5 C2494,343 2495,339.5 2496,336 C2496,332.5 2495.75,327.75 2495.25,321.75 C2494.75,315.75 2493.625,310.125 2491.875,304.875 C2490.125,299.625 2487.75,295.375 2484.75,292.125 C2481.75,288.875 2478,288.25 2473.5,290.25 C2463.5,293.75 2454.75,302.125 2447.25,315.375 C2439.75,328.625 2432.75,344.125 2426.25,361.875 C2419.75,379.625 2413.75,398.375 2408.25,418.125 C2402.75,437.875 2397.25,456 2391.75,472.5 C2386.25,489 2380.625,502.75 2374.875,513.75 C2369.125,524.75 2363,530.25 2356.5,530.25 C2353,530.25 2348.875,529.5 2344.125,528 C2339.375,526.5 2334.75,524.625 2330.25,522.375 C2325.75,520.125 2322,517.75 2319,515.25 C2316,512.75 2314.5,510.75 2314.5,509.25 C2314,496.75 2315.5,484.5 2319,472.5 C2322.5,460.5 2326.375,449.25 2330.625,438.75 C2334.875,428.25 2338.875,418.625 2342.625,409.875 C2346.375,401.125 2348.25,393.25 2348.25,386.25 L2348.25,380.25 C2348.25,370.75 2351.75,357.5 2358.75,340.5 C2360.75,334 2363.25,327.75 2366.25,321.75 C2369.25,315.75 2370.25,310.75 2369.25,306.75 C2369.25,300.75 2366.5,295.875 2361,292.125 C2355.5,288.375 2351.25,287.75 2348.25,290.25 C2339.75,292.75 2332,297.875 2325,305.625 C2318,313.375 2311.875,321.625 2306.625,330.375 C2301.375,339.125 2296.875,347.375 2293.125,355.125 C2289.375,362.875 2286.75,368.25 2285.25,371.25 C2278.25,381.75 2273,392 2269.5,402 C2266,412 2262.25,421.25 2258.25,429.75 C2258.25,430.75 2257,436.5 2254.5,447 C2252,457.5 2248.25,468.75 2243.25,480.75 C2238.25,492.75 2231.875,503.625 2224.125,513.375 C2216.375,523.125 2207,528 2196,528 C2193,528 2190.125,526.875 2187.375,524.625 C2184.625,522.375 2182.375,519.625 2180.625,516.375 C2178.875,513.125 2177.5,509.875 2176.5,506.625 C2175.5,503.375 2175,500.75 2175,498.75 C2175,495.75 2173.875,492.125 2171.625,487.875 C2169.375,483.625 2169.75,478.25 2172.75,471.75 C2174.75,467.75 2178.25,458.25 2183.25,443.25 C2188.25,428.25 2193.375,411.875 2198.625,394.125 C2203.875,376.375 2208.375,359.25 2212.125,342.75 C2215.875,326.25 2217.5,314.25 2217,306.75 C2217,303.75 2218,300.75 2220,297.75 C2222,294.75 2223,291.5 2223,288 C2223,281 2222.375,275.5 2221.125,271.5 C2219.875,267.5 2215.75,265.5 2208.75,265.5 C2205.75,265.5 2202.875,266.5 2200.125,268.5 C2197.375,270.5 2194.5,272.875 2191.5,275.625 C2188.5,278.375 2185.125,280.75 2181.375,282.75 C2177.625,284.75 2172.75,285.75 2166.75,285.75 C2163.25,285.75 2160,284.75 2157,282.75 C2155.5,281.75 2154.5,280.75 2154,279.75 C2154,272.75 2156.125,266.125 2160.375,259.875 C2164.625,253.625 2169.5,250.5 2175,250.5 C2181.5,243.5 2188.25,236.625 2195.25,229.875 C2202.25,223.125 2209.5,218.25 2217,215.25 C2218.5,213.75 2221.875,210.5 2227.125,205.5 C2232.375,200.5 2238.25,195.375 2244.75,190.125 C2251.25,184.875 2257.75,180.125 2264.25,175.875 C2270.75,171.625 2275.75,169.5 2279.25,169.5 Z" id="Path"></path>
            <path d="M2759.25,161.25 C2766.25,161.25 2774.875,161.5 2785.125,162 C2795.375,162.5 2804,164.25 2811,167.25 C2818.5,167.25 2823.375,170.25 2825.625,176.25 C2827.875,182.25 2830.75,189 2834.25,196.5 C2836.25,198.5 2838.625,201.25 2841.375,204.75 C2844.125,208.25 2846.625,211.875 2848.875,215.625 C2851.125,219.375 2853,223.25 2854.5,227.25 C2856,231.25 2856.75,234.75 2856.75,237.75 L2850.75,304.5 C2850.75,318.5 2847.75,334 2841.75,351 C2835.75,368 2827,383.25 2815.5,396.75 C2811.5,400.75 2808.625,405.125 2806.875,409.875 C2805.125,414.625 2803.375,419.5 2801.625,424.5 C2799.875,429.5 2797.875,434.625 2795.625,439.875 C2793.375,445.125 2790.25,450.25 2786.25,455.25 C2783.25,458.75 2779.875,463 2776.125,468 C2772.375,473 2768.375,478.125 2764.125,483.375 C2759.875,488.625 2755.375,493.375 2750.625,497.625 C2745.875,501.875 2741,505 2736,507 C2728.5,511 2722.25,514.5 2717.25,517.5 C2712.25,520.5 2707.75,523 2703.75,525 C2699.75,527 2695.625,528.375 2691.375,529.125 C2687.125,529.875 2682.5,530.25 2677.5,530.25 C2670,530.25 2663,528.5 2656.5,525 C2650,521.5 2644.375,516.875 2639.625,511.125 C2634.875,505.375 2631,498.875 2628,491.625 C2625,484.375 2623.5,477 2623.5,469.5 L2623.5,419.25 C2623.5,416.25 2622.5,413.5 2620.5,411 C2618.5,408.5 2617.5,401.5 2617.5,390 C2617,375.5 2620.5,358 2628,337.5 C2635.5,317 2644.375,296.875 2654.625,277.125 C2664.875,257.375 2675.125,239.875 2685.375,224.625 C2695.625,209.375 2703.5,200 2709,196.5 C2714.5,193 2719.125,189.125 2722.875,184.875 C2726.625,180.625 2730.25,176.75 2733.75,173.25 C2737.25,169.75 2740.875,166.875 2744.625,164.625 C2748.375,162.375 2753.25,161.25 2759.25,161.25 Z M2763,246.75 C2755,246.75 2746.875,250.125 2738.625,256.875 C2730.375,263.625 2722.75,271.375 2715.75,280.125 C2708.75,288.875 2702.5,297.625 2697,306.375 C2691.5,315.125 2687.75,321.5 2685.75,325.5 L2678.25,354 C2676.25,361 2674.625,367.75 2673.375,374.25 C2672.125,380.75 2671.5,384.75 2671.5,386.25 L2671.5,400.5 C2673.5,402 2675.25,405 2676.75,409.5 C2678.25,414 2680.125,418.5 2682.375,423 C2684.625,427.5 2687.25,431.5 2690.25,435 C2693.25,438.5 2697.5,440.25 2703,440.25 C2713,435.75 2722.25,431.25 2730.75,426.75 C2737.75,422.75 2744.625,418.5 2751.375,414 C2758.125,409.5 2762.75,405 2765.25,400.5 C2768.25,393.5 2771.625,385.25 2775.375,375.75 C2779.125,366.25 2782.75,357.25 2786.25,348.75 C2785.25,344.75 2786.375,340.75 2789.625,336.75 C2792.875,332.75 2794.5,329 2794.5,325.5 L2794.5,304.5 C2794.5,302 2793.875,297.625 2792.625,291.375 C2791.375,285.125 2789.375,278.625 2786.625,271.875 C2783.875,265.125 2780.5,259.25 2776.5,254.25 C2772.5,249.25 2768,246.75 2763,246.75 Z" id="Shape"></path>
            <path d="M2982,156.75 C2987.5,155.75 2991.125,156.5 2992.875,159 C2994.625,161.5 2998.75,164.25 3005.25,167.25 C3010.75,170.25 3015.5,173.75 3019.5,177.75 C3023.5,181.75 3025.5,186.5 3025.5,192 C3025,194.5 3024.5,197.25 3024,200.25 C3023,206.75 3023.5,213 3025.5,219 C3025.5,223.5 3024.625,228.875 3022.875,235.125 C3021.125,241.375 3020.75,246.5 3021.75,250.5 C3022.75,252.5 3024.25,254.5 3026.25,256.5 C3027.75,258 3029.375,259.375 3031.125,260.625 C3032.875,261.875 3034.5,262 3036,261 C3041,260 3046.375,255.25 3052.125,246.75 C3057.875,238.25 3063.5,228.75 3069,218.25 C3074.5,207.75 3080,197.5 3085.5,187.5 C3091,177.5 3096,170.75 3100.5,167.25 L3123.75,161.25 C3126.75,160.25 3130.125,160 3133.875,160.5 C3137.625,161 3140.5,161.25 3142.5,161.25 C3152,166.75 3158,174.375 3160.5,184.125 C3163,193.875 3164.75,201.5 3165.75,207 C3166.25,214 3163.875,223.25 3158.625,234.75 C3153.375,246.25 3146.75,255.75 3138.75,263.25 C3135.25,265.25 3132,266.875 3129,268.125 C3126,269.375 3123,270.5 3120,271.5 C3117.5,271.5 3115.625,271.375 3114.375,271.125 C3113.125,270.875 3111.5,270.25 3109.5,269.25 C3107,268.25 3104.625,267.625 3102.375,267.375 C3100.125,267.125 3097.5,267 3094.5,267 C3088,267 3081.875,269.5 3076.125,274.5 C3070.375,279.5 3064.75,284.75 3059.25,290.25 C3050.75,300.75 3044.125,312.625 3039.375,325.875 C3034.625,339.125 3032.25,351.5 3032.25,363 C3028.75,366.5 3024.625,370.875 3019.875,376.125 C3015.125,381.375 3011.5,387.5 3009,394.5 C3006,401.5 3004.625,408.75 3004.875,416.25 C3005.125,423.75 3003.75,431 3000.75,438 C3001.25,444 3001.25,450.875 3000.75,458.625 C3000.25,466.375 2999.375,474.5 2998.125,483 C2996.875,491.5 2995.25,499.625 2993.25,507.375 C2991.25,515.125 2989,522 2986.5,528 C2983,530.5 2978.75,532.75 2973.75,534.75 C2968.75,536.75 2963.5,538.25 2958,539.25 C2952,540.75 2945.5,541.75 2938.5,542.25 C2936,542.25 2932.75,540.25 2928.75,536.25 C2926.75,534.25 2925,532.25 2923.5,530.25 L2913,509.25 C2912.5,505.75 2913,499.75 2914.5,491.25 C2916,482.75 2917.75,474.125 2919.75,465.375 C2921.75,456.625 2923.625,448.75 2925.375,441.75 C2927.125,434.75 2928,430.75 2928,429.75 C2939,413.25 2946.25,395.875 2949.75,377.625 C2953.25,359.375 2957,341.25 2961,323.25 L2955,273.75 C2952.5,267.25 2949.375,264 2945.625,264 C2941.875,264 2938,264.5 2934,265.5 C2926,267 2920.25,269.125 2916.75,271.875 C2913.25,274.625 2910.25,277.5 2907.75,280.5 C2905.25,283.5 2902.5,286.375 2899.5,289.125 C2896.5,291.875 2891.25,293.75 2883.75,294.75 C2879.75,294.75 2877.25,292.25 2876.25,287.25 C2875.25,282.25 2874.25,277.75 2873.25,273.75 C2872.25,269.25 2873,264.875 2875.5,260.625 C2878,256.375 2881.375,252.375 2885.625,248.625 C2889.875,244.875 2894.75,241.125 2900.25,237.375 C2905.75,233.625 2910.75,229.75 2915.25,225.75 C2921.25,219.25 2926.5,212.125 2931,204.375 C2935.5,196.625 2940,189.375 2944.5,182.625 C2949,175.875 2954.125,170.125 2959.875,165.375 C2965.625,160.625 2973,157.75 2982,156.75 Z" id="Path"></path>
            <path d="M3249.75,156.75 C3258.25,156.75 3265.25,159.875 3270.75,166.125 C3276.25,172.375 3279,179 3279,186 L3272.25,207 C3275.25,210 3277.25,214.25 3278.25,219.75 C3278.75,222.25 3279,225 3279,228 C3279,238 3277.875,247.25 3275.625,255.75 C3273.375,264.25 3272.25,273.75 3272.25,284.25 L3272.25,290.25 C3272.25,292.75 3272,295.625 3271.5,298.875 C3271,302.125 3270.25,305.25 3269.25,308.25 C3268.25,311.75 3267.25,315.5 3266.25,319.5 L3266.25,327.75 C3266.25,333.25 3265.375,337.75 3263.625,341.25 C3261.875,344.75 3260,349.25 3258,354.75 C3257,358.75 3255.375,362.875 3253.125,367.125 C3250.875,371.375 3249.75,376.25 3249.75,381.75 C3249.75,383.75 3250.25,386.375 3251.25,389.625 C3252.25,392.875 3253.75,396.125 3255.75,399.375 C3257.75,402.625 3260.125,405.375 3262.875,407.625 C3265.625,409.875 3268.75,411 3272.25,411 C3276.25,411 3279.875,409.75 3283.125,407.25 C3286.375,404.75 3289,402 3291,399 C3293.5,396.5 3296.125,394.375 3298.875,392.625 C3301.625,390.875 3304.75,390 3308.25,390 L3322.5,390 C3325.5,390 3327.25,391.5 3327.75,394.5 C3328.25,397.5 3328.5,401 3328.5,405 C3328.5,406.5 3326.25,409.5 3321.75,414 C3317.25,418.5 3312.25,423.375 3306.75,428.625 C3301.25,433.875 3295.75,438.875 3290.25,443.625 C3284.75,448.375 3281,451.5 3279,453 C3277.5,456.5 3274.25,462.5 3269.25,471 C3264.25,479.5 3258.75,488.125 3252.75,496.875 C3246.75,505.625 3240.375,513.375 3233.625,520.125 C3226.875,526.875 3221,530.25 3216,530.25 C3212.5,530.25 3208.625,529.125 3204.375,526.875 C3200.125,524.625 3196.25,521.625 3192.75,517.875 C3189.25,514.125 3186.375,510.25 3184.125,506.25 C3181.875,502.25 3180.75,498.25 3180.75,494.25 L3180.75,482.25 C3180.75,478.25 3180.5,474.75 3180,471.75 C3179.5,468.75 3177.75,467.25 3174.75,467.25 L3174.75,453 L3180.75,432 L3180.75,396.75 C3180.75,389.25 3181.75,383.25 3183.75,378.75 C3185.75,374.25 3186.75,368.5 3186.75,361.5 L3186.75,354.75 C3186.75,351.25 3187.875,346.25 3190.125,339.75 C3192.375,333.25 3194.75,326.25 3197.25,318.75 C3199.75,311.25 3202.125,303.875 3204.375,296.625 C3206.625,289.375 3207.75,283 3207.75,277.5 C3207.75,273.5 3206.125,269.125 3202.875,264.375 C3199.625,259.625 3194.25,257.25 3186.75,257.25 C3183.75,257.25 3181.125,258.25 3178.875,260.25 C3176.625,262.25 3170.25,263.25 3159.75,263.25 C3158.75,262.75 3157.75,261.5 3156.75,259.5 C3154.75,256.5 3153.75,252.75 3153.75,248.25 L3153.75,236.25 C3153.75,231.75 3158.125,225.125 3166.875,216.375 C3175.625,207.625 3185.625,198.875 3196.875,190.125 C3208.125,181.375 3219,173.625 3229.5,166.875 C3240,160.125 3246.75,156.75 3249.75,156.75 Z M3266,6.75 C3268,6.75 3270.625,6.375 3273.875,5.625 C3277.125,4.875 3280.5,4.125 3284,3.375 C3287.5,2.625 3290.875,1.875 3294.125,1.125 C3297.375,0.375 3299.75,0 3301.25,0 C3308.25,2.5 3312.75,6.75 3314.75,12.75 C3316.75,18.75 3319.75,25 3323.75,31.5 C3323.75,35.5 3324.125,39.5 3324.875,43.5 C3325.625,47.5 3326,51.25 3326,54.75 C3326,57.75 3325,61.375 3323,65.625 C3321,69.875 3320,75.25 3320,81.75 C3319,85.25 3317.625,89.5 3315.875,94.5 C3314.125,99.5 3311.875,104.125 3309.125,108.375 C3306.375,112.625 3303.125,116.125 3299.375,118.875 C3295.625,121.625 3291.25,122.5 3286.25,121.5 C3279.25,121.5 3271.625,119.125 3263.375,114.375 C3255.125,109.625 3249,103.5 3245,96 C3241.5,93 3240.25,88.5 3241.25,82.5 C3242.25,76.5 3242.75,71.25 3242.75,66.75 C3242.75,53.25 3245,42.25 3249.5,33.75 C3254,25.25 3259.5,16.25 3266,6.75 Z" id="Shape"></path>
            <path d="M3558,154.5 C3568.5,154.5 3576,157.5 3580.5,163.5 C3585,169.5 3587.25,177.75 3587.25,188.25 C3587.25,190.25 3586.5,194.625 3585,201.375 C3583.5,208.125 3581.625,215.625 3579.375,223.875 C3577.125,232.125 3574.75,240.5 3572.25,249 C3569.75,257.5 3567.75,264.25 3566.25,269.25 C3566.25,273.25 3566,277.375 3565.5,281.625 C3565,285.875 3563.25,291.5 3560.25,298.5 C3556.25,301.5 3554.25,306.375 3554.25,313.125 C3554.25,319.875 3554.25,324.75 3554.25,327.75 L3552,367.5 L3552,396.75 C3552,398.25 3552.125,400.875 3552.375,404.625 C3552.625,408.375 3553.125,412.125 3553.875,415.875 C3554.625,419.625 3556,422.875 3558,425.625 C3560,428.375 3562.75,429.75 3566.25,429.75 L3576.75,413.25 C3579.75,410.75 3583.25,407.625 3587.25,403.875 C3591.25,400.125 3595.25,396.5 3599.25,393 C3603.75,389 3608.25,384.75 3612.75,380.25 C3613.11727,380.25 3620.32374,373.128473 3639.57628,364.376136 C3658.82881,355.623799 3650.57596,379.849067 3650.57596,380.25 L3631.64699,403.875 C3629.64699,407.875 3620.6398,413.875 3618.6398,415.875 C3615.1398,425.875 3606.25,425.875 3600.75,433.125 C3595.25,440.375 3589.25,447.375 3582.75,454.125 C3576.25,460.875 3569.625,467.75 3562.875,474.75 C3556.125,481.75 3549.75,489.75 3543.75,498.75 L3527.25,522 C3527.25,526.5 3525.875,531.125 3523.125,535.875 C3520.375,540.625 3517.125,544.375 3513.375,547.125 C3509.625,549.875 3505.625,551.125 3501.375,550.875 C3497.125,550.625 3493.75,547.75 3491.25,542.25 C3488.25,533.25 3486.75,524.375 3486.75,515.625 C3486.75,506.875 3487.5,498.375 3489,490.125 C3490.5,481.875 3492,474 3493.5,466.5 C3495,459 3495.75,451.75 3495.75,444.75 L3495.75,417.75 L3495.75,402.75 C3495.75,400.25 3494,398.5 3490.5,397.5 C3488.5,397 3486.75,396.75 3485.25,396.75 C3483.75,396.75 3480,401.125 3474,409.875 C3468,418.625 3461.125,428.625 3453.375,439.875 C3445.625,451.125 3437.75,462.5 3429.75,474 C3421.75,485.5 3415.25,493.75 3410.25,498.75 C3408.75,500.75 3406.375,503.625 3403.125,507.375 C3399.875,511.125 3396.375,514.75 3392.625,518.25 C3388.875,521.75 3384.75,524.875 3380.25,527.625 C3375.75,530.375 3371.75,531.75 3368.25,531.75 C3361.25,531.75 3355.5,529.25 3351,524.25 C3346.5,519.25 3343,513.375 3340.5,506.625 C3338,499.875 3336.125,493.125 3334.875,486.375 C3333.625,479.625 3333,474.75 3333,471.75 L3330.75,417.75 L3341.25,330 C3341.25,328.5 3342,325 3343.5,319.5 C3345,314 3347,308 3349.5,301.5 C3352,295 3354.875,288.625 3358.125,282.375 C3361.375,276.125 3364.75,271 3368.25,267 C3382.75,253.5 3396.75,237 3410.25,217.5 C3416.75,208.5 3423,202 3429,198 C3435,194 3441,190.875 3447,188.625 C3453,186.375 3459,184.625 3465,183.375 C3471,182.125 3477.75,179.5 3485.25,175.5 C3488.25,175.5 3492.125,173.875 3496.875,170.625 C3501.625,167.375 3506,164.25 3510,161.25 L3531,161.25 L3543.75,161.25 L3558,154.5 Z M3462,237.75 C3453,245.25 3444.5,253.875 3436.5,263.625 C3428.5,273.375 3421.5,283.25 3415.5,293.25 C3409.5,303.25 3404.75,312.625 3401.25,321.375 C3397.75,330.125 3396,337 3396,342 C3396,344.5 3395.75,349.125 3395.25,355.875 C3394.75,362.625 3395,369.625 3396,376.875 C3397,384.125 3398.875,390.625 3401.625,396.375 C3404.375,402.125 3409.25,405 3416.25,405 C3422.75,405 3430.375,399.25 3439.125,387.75 C3447.875,376.25 3456.125,363.25 3463.875,348.75 C3471.625,334.25 3478.125,320.75 3483.375,308.25 C3488.625,295.75 3491.25,288.25 3491.25,285.75 C3491.25,283.75 3491.5,278.875 3492,271.125 C3492.5,263.375 3492.125,255.875 3490.875,248.625 C3489.625,241.375 3486.875,236.125 3482.625,232.875 C3478.375,229.625 3471.5,231.25 3462,237.75 Z" id="Shape"></path>
        </g>
    </g>
</svg>