<?xml version="1.0" encoding="UTF-8"?>
<svg width="1934px" height="2142px" viewBox="0 0 1934 2142" version="1.1" xmlns="http://www.w3.org/2000/svg" xmlns:xlink="http://www.w3.org/1999/xlink">
    <title>Group 3 Copy</title>
    <g id="Page-1" stroke="none" stroke-width="1" fill="none" fill-rule="evenodd">
        <g id="Group-3-Copy" transform="translate(8.1265, 7.701)" stroke="#F5F5EF" stroke-width="15">
            <path d="M483.819517,921.058143 C431.132901,890.759895 401.128427,870.367995 393.806094,859.882442 C379.369044,839.208643 396.074672,829.402661 380.503413,817.210567 C174.039909,655.552318 12.1187184,562.991501 12.1187184,541.757442 C12.1187184,516.293669 8.07914559,493.48217 0,473.322946 C45.2437063,336.498297 120.683174,232.703209 226.318402,161.937681 C271.852157,131.434409 325.704708,101.437984 393.806094,80.1370878 C453.732241,61.3932603 571.462378,44.4125175 746.996504,29.1948592 L617.666448,187.330652 C675.245492,129.541644 718.355511,93.8104556 746.996504,80.1370878 C800.06621,54.8013186 816.724443,64.0847255 840.940604,60.5186632 C863.171045,57.2450174 899.236118,15.9010906 944.000819,3.15321269 C973.843952,-5.34537257 1021.41817,3.33517625 1086.72348,29.1948592 L1158.73247,80.1370878 C1360.08689,37.092023 1508.98952,37.092023 1605.44037,80.1370878 C1701.89122,123.182153 1805.78004,232.791827 1917.10684,408.966111 C1901.81355,449.689775 1885.70113,477.823768 1868.76955,493.36809 C1718.57528,631.256474 1603.59814,717.181028 1591.38383,773.007442 C1577.10412,838.273924 1468.9887,929.428489 1267.03757,1046.47114 L1158.73247,1001.74893 C1169.16247,959.036791 1169.16247,911.747964 1158.73247,859.882442 C1148.30246,808.016921 1157.18182,733.070078 1185.37054,635.041914 C1163.81939,718.022286 1147.15878,769.177463 1135.38872,788.507442 C1111.51188,827.72038 1067.66301,834.945902 1063.92477,841.130814 C1046.86237,869.360562 1066.93448,914.57098 1063.92477,921.058143 C1059.1946,931.253632 1053.41075,933.504683 1046.57322,927.811295 C1031.99629,1039.33178 1014.17568,1113.80689 993.111377,1151.23665 C972.047074,1188.6664 910.80076,1249.14269 809.372435,1332.66551 C882.016242,1195.46344 922.615258,1116.27228 931.169482,1095.09202 C939.723707,1073.91175 944.000819,995.50856 944.000819,859.882442 C947.010214,930.896886 947.010214,971.605219 944.000819,982.007442 C925.705253,1045.24758 899.262044,1033.90442 894.166448,1046.47114 C740.55533,1425.30566 648.062043,1677.40183 575.124782,1787.57948 C383.139028,2077.58953 202.766794,2102.22089 186.461481,2116.3451 C160.28793,2139.0175 126.856252,2124.2532 86.1664483,2072.05219 C245.531551,1919.65889 348.078099,1808.99463 393.806094,1740.05941 C493.120348,1590.34259 506.312463,1447.23827 532.583115,1367.92139 C583.282167,1214.84981 511.424392,1020.7177 532.583115,946.757442 C587.092976,756.218375 555.647699,703.370219 575.124782,621.257442 C585.410793,577.892993 554.15735,562.320577 549.656918,541.757442 C537.200667,484.843001 518.397325,479.599261 532.583115,430.307058 C558.556979,340.054136 603.453673,298.975738 617.666448,265.197282 C675.777559,127.08889 784.555683,89.3002332 944.000819,151.831311" id="Path-7"></path>
            <path d="M567.764097,734.741273 C547.597874,785.762037 529.527063,827.47576 513.551663,859.882442 C507.600833,871.95392 488.442971,894.592432 483.878571,910.263676 C479.504557,925.281255 492.290535,933.294939 483.878571,946.757442 C456.601096,990.412301 442.94975,1036.47371 399.166617,1092.66369 C372.135932,1127.35408 317.219322,1186.05171 234.416787,1268.75658 C308.330578,1253.59967 364.78459,1231.25854 403.778824,1201.73317 C442.773057,1172.2078 485.777266,1123.31745 532.791448,1055.06211 L483.878571,946.757442" id="Path-8"></path>
            <path d="M944.000819,982.007442 C965.778464,953.922937 976.708119,939.800155 976.789784,939.639097 C979.932661,933.440767 1001.74338,927.230053 1042.22194,921.006954" id="Path-9"></path>
        </g>
    </g>
</svg>